<svg width="355pt" height="120pt" viewBox="0 0 355 120" version="1.1" xmlns="http://www.w3.org/2000/svg">
<g>
<path fill="#232529" d=" M 321.11 3.92 C 330.23 0.91 341.76 4.94 345.61 14.08 C 348.56 21.54 346.09 30.09 341.04 36.03 C 335.09 42.97 329.25 50.01 323.32 56.97 C 331.21 57.04 339.10 56.98 347.00 57.00 C 347.00 59.67 347.00 62.33 347.00 65.00 C 334.20 65.00 321.41 65.00 308.62 65.00 C 308.60 64.17 308.57 62.53 308.55 61.70 C 317.37 50.84 326.45 40.19 335.28 29.34 C 338.14 25.64 339.71 20.16 337.09 15.92 C 333.43 10.03 324.06 9.23 319.36 14.27 C 317.41 15.99 316.68 18.54 316.14 20.99 C 313.37 20.30 310.58 19.66 307.84 18.86 C 309.01 11.87 314.27 5.85 321.11 3.92 Z"/>
<path fill="#232529" d=" M 14.48 53.45 C 21.33 43.01 33.44 36.27 45.94 36.01 C 59.35 35.28 73.01 41.68 80.52 52.90 C 75.99 55.96 71.43 58.99 66.87 62.01 C 62.53 56.06 55.49 52.08 48.05 52.06 C 40.99 51.71 34.02 55.14 29.82 60.79 C 20.85 72.12 23.83 91.18 36.75 98.27 C 47.12 104.20 61.00 99.91 67.34 90.10 C 71.83 93.30 76.46 96.30 80.88 99.60 C 76.35 106.24 69.88 111.54 62.35 114.38 C 51.28 118.57 38.32 117.85 28.00 111.92 C 18.77 106.90 12.03 97.90 9.19 87.85 C 5.94 76.34 7.75 63.40 14.48 53.45 Z"/>
<path fill="#232529" d=" M 104.31 37.01 C 109.91 36.99 115.52 37.00 121.12 37.01 C 121.13 63.34 121.13 89.66 121.12 115.99 C 115.52 116.00 109.91 116.01 104.31 115.99 C 104.31 89.66 104.31 63.34 104.31 37.01 Z"/>
<path fill="#232529" d=" M 150.31 37.01 C 160.88 36.99 171.44 37.00 182.01 37.00 C 190.50 36.96 199.07 39.94 205.32 45.79 C 212.87 52.66 216.44 62.94 217.03 72.94 C 217.70 83.45 215.70 94.61 209.18 103.13 C 203.07 111.18 193.09 115.86 183.03 115.98 C 172.12 116.03 161.22 115.99 150.31 115.99 C 150.31 89.66 150.31 63.34 150.31 37.01 M 167.13 52.07 C 167.12 68.38 167.13 84.68 167.12 100.99 C 175.24 100.40 184.51 102.93 191.58 97.74 C 200.04 91.44 201.29 79.56 199.72 69.86 C 198.58 61.78 192.99 53.62 184.48 52.29 C 178.72 51.78 172.91 52.19 167.13 52.07 Z"/>
<path fill="#232529" d=" M 243.31 37.01 C 260.05 37.02 276.79 36.94 293.53 37.05 C 293.47 41.72 293.52 46.39 293.49 51.06 C 282.37 51.07 271.25 51.05 260.13 51.07 C 260.12 57.38 260.12 63.68 260.12 69.99 C 269.85 70.01 279.58 69.99 289.31 70.01 C 289.31 74.69 289.32 79.37 289.31 84.05 C 279.58 84.08 269.85 84.05 260.13 84.07 C 260.12 90.04 260.12 96.02 260.12 101.99 C 271.58 102.01 283.04 101.99 294.50 102.00 C 294.50 106.67 294.50 111.33 294.50 116.00 C 277.43 116.00 260.37 116.01 243.31 115.99 C 243.31 89.66 243.31 63.34 243.31 37.01 Z"/>
</g>
</svg>